<?xml version="1.0" encoding="UTF-8"?>
<svg xmlns="http://www.w3.org/2000/svg" id="Layer_2" viewBox="0 0 1000 93.1394" width="1024px" height="95.3747456px"><g id="Components"><g id="d74b4428-5deb-4243-86f2-61828da85d94_5"><path d="M137.2523,26.2904c0-13.1695-8.1178-22.0816-20.8947-22.0816h-32.7796v69.1169h15.0559v-25.3503h10.7946l12.0783,25.3503h16.7338l-13.5627-27.1351c8.4127-3.1661,12.5743-10.5944,12.5743-19.9001ZM121.7062,28.4678c0,4.4566-2.7736,6.8323-7.2301,6.8323h-15.8421v-18.0237h15.8421c4.4566,0,7.2301,2.3759,7.2301,6.8323v4.3591Z" style="fill:#fff;"/><polygon points="362.5373 50.7496 362.2362 50.7496 355.6021 36.8867 336.6919 4.2088 320.2486 4.2088 320.2486 73.3264 334.4125 73.3264 334.4125 26.7855 334.7085 26.7855 341.3415 40.6494 360.2579 73.3264 376.6961 73.3264 376.6961 4.2088 362.5373 4.2088 362.5373 50.7496" style="fill:#fff;"/><polygon points="243.1134 4.2173 228.0571 4.2088 228.0571 4.2173 228.0571 16.184 242.3407 63.5621 242.3407 73.3256 257.397 73.3256 257.397 61.3459 243.1134 13.9685 243.1134 4.2173" style="fill:#fff;"/><polygon points="285.8452 4.2173 270.7889 4.2088 270.7889 4.2173 270.7889 16.184 285.0725 63.5621 285.0725 73.3256 300.1288 73.3256 300.1288 61.3459 285.8452 13.9685 285.8452 4.2173" style="fill:#fff;"/><polygon points="197.4712 4.2088 172.3685 4.2088 169.4322 13.9601 155.1486 61.3373 155.1486 73.3172 170.2048 73.3172 170.2048 63.5537 183.9815 17.8582 185.8586 17.8582 199.6352 63.5537 199.6352 73.3172 214.6911 73.3172 214.6911 61.3373 200.4076 13.9601 197.4712 4.2088" style="fill:#fff;"/><path d="M428.0096,31.7363l-6.933-1.0895c-2.9707-.461-5.0489-1.1386-6.237-2.0301-1.1877-.8902-1.7826-2.4582-1.7826-4.7037,0-4.1587,3.3003-6.3333,9.9011-6.3333h21.1925V4.2088h-21.1925c-7.7886.1327-13.8952,2.0474-18.3171,5.7437-4.4244,3.6981-6.6356,8.7138-6.6356,14.8521,0,5.8105,1.7169,10.4317,5.15,13.6655,3.4306,3.2353,8.7452,5.2814,15.9414,6.1384l6.8319.8913c2.971.396,5.0519,1.2384,6.2395,2.5261,1.188,1.2873,1.7834,2.9205,1.7834,4.9015,0,2.575-.9274,4.6212-2.7743,6.1384-1.8498,1.52-4.5547,2.2786-8.1181,2.2786-6.8005,0-12.5776-2.6747-17.3313-8.0211l-9.803,10.001c6.6669,7.4606,15.3486,11.1901,26.0444,11.1901,5.6099,0,10.4461-.9408,14.5066-2.8223,4.0605-1.8814,7.1458-4.5055,9.2584-7.8723,2.1126-3.3669,3.1674-7.2611,3.1674-11.6843,0-5.8755-1.7166-10.4634-5.1471-13.7651-3.4335-3.3004-8.6817-5.5114-15.745-6.6341Z" style="fill:#fff;"/><path d="M52.346,37.2524v-.5968c4.7259-1.7277,8.3766-6.5669,8.3766-14.7145,0-5.3469-1.5998-9.6371-4.8018-12.8725-3.2021-3.234-7.6747-4.8524-13.4175-4.8524l-42.5033-.0075v11.973h8.9324v57.1537h36.6404c2.575,0,4.9507-.5103,7.1298-1.5348,2.179-1.0231,4.0605-2.4261,5.6442-4.2091,1.5841-1.7819,2.8221-3.8773,3.7127-6.2874.8928-2.4091,1.3366-4.967,1.3366-7.6747,0-9.1146-5.4577-14.4132-11.0501-16.3772ZM23.9865,16.8906h14.9534c1.9823,0,3.5317.5623,4.6558,1.6837,1.1213,1.124,1.6822,2.6732,1.6822,4.6544v2.971c0,1.9797-.561,3.5317-1.6822,4.6544-1.1242,1.1227-2.6736,1.6837-4.6558,1.6837h-14.9534v-15.6472ZM47.7544,54.4214c0,1.981-.5792,3.5158-1.7326,4.6053-1.1559,1.0895-2.7236,1.633-4.7033,1.633h-17.332v-15.8436h17.332c1.9797,0,3.5474.5448,4.7033,1.6343,1.1534,1.0895,1.7326,2.6241,1.7326,4.6042v3.3669Z" style="fill:#fff;"/><path d="M512.915,42.0117v31.3101h-8.3233V4.1616h8.3233v30.5177h34.9768V4.1616h8.3225v69.1601h-8.3225v-31.3101h-34.9768Z" style="fill:#fff;"/><path d="M602.1866,64.9992h-.4949c-2.1797,6.2421-7.6298,9.5117-14.7639,9.5117-10.8001,0-17.1415-5.945-17.1415-15.4567,0-9.6117,6.9363-14.9617,21.7988-14.9617h10.1066v-5.0533c0-7.233-3.9638-11.1965-12.0885-11.1965-6.1428,0-10.2052,2.9725-12.9798,7.6294l-4.7558-4.4587c2.7739-5.4497,8.9175-10.0073,18.1321-10.0073,12.2864,0,19.6183,6.4403,19.6183,17.2404v28.1398h5.8464v6.9356h-10.8001l-2.4776-8.3225ZM601.6917,58.4593v-8.4218h-10.503c-9.0168,0-13.0791,2.7747-13.0791,7.7283v2.0805c0,5.0537,3.9631,7.9276,10.1066,7.9276,7.8276,0,13.4755-4.0631,13.4755-9.3146Z" style="fill:#fff;"/><path d="M621.9034,64.5036l5.6479-4.558c3.9631,4.9544,8.7197,7.8283,15.1596,7.8283,6.7378,0,10.7016-3.0718,10.7016-8.3233,0-3.9638-2.1797-7.0356-8.9175-8.0262l-4.0631-.5942c-9.4124-1.3877-16.448-5.2515-16.448-14.7636,0-10.1066,7.8283-15.0607,18.2321-15.0607,8.224,0,13.6733,3.0714,17.835,8.224l-5.2515,4.7558c-2.279-3.1707-6.6385-6.2421-13.1784-6.2421s-10.0073,3.0714-10.0073,7.9265c0,4.954,3.4682,6.9359,9.8095,7.9265l3.9631.5942c11.2958,1.6848,15.6552,6.6392,15.6552,14.3675,0,9.9088-7.2334,15.9523-18.9248,15.9523-9.4131,0-15.6552-3.9631-20.2133-10.0073Z" style="fill:#fff;"/><path d="M682.9381,0v30.5177h.3964c2.4776-5.7464,6.837-9.5117,14.4668-9.5117,10.5023,0,17.1415,7.1338,17.1415,19.5194v32.7963h-7.9269v-31.409c0-9.116-3.9638-13.773-11.5929-13.773-6.3414,0-12.4849,3.1707-12.4849,9.7102v35.4717h-7.9269V0h7.9269Z" style="fill:#fff;"/><path d="M739.2162,22.1948v8.3229h.3964c2.6754-6.4403,7.9269-9.5117,14.9617-9.5117,12.782,0,20.8075,10.4037,20.8075,26.7524s-8.0254,26.7524-20.8075,26.7524c-7.0349,0-11.89-3.1703-14.9617-9.5117h-.3964v28.1401h-7.9269V22.1948h7.9269ZM766.8607,52.1179v-8.7189c0-9.116-5.5486-15.2592-14.4661-15.2592-7.2334,0-13.1784,4.1616-13.1784,9.8092v19.0241c0,6.6385,5.945,10.4037,13.1784,10.4037,8.9175,0,14.4661-6.1428,14.4661-15.2589Z" style="fill:#fff;"/><path d="M784.9906,47.7585c0-16.2498,9.4131-26.7524,23.0865-26.7524s23.0872,10.5026,23.0872,26.7524-9.4131,26.7524-23.0872,26.7524-23.0865-10.5023-23.0865-26.7524ZM822.6431,51.4244v-7.332c0-10.8001-6.0443-16.0516-14.5661-16.0516s-14.5646,5.2515-14.5646,16.0516v7.332c0,10.8001,6.0435,16.0516,14.5646,16.0516s14.5661-5.2515,14.5661-16.0516Z" style="fill:#fff;"/><path d="M846.1253,22.1948l5.4501,22.0955,5.4493,22.393h.1978l6.2428-22.393,6.4399-22.0955h7.0356l6.6385,22.0955,6.3414,22.393h.1978l5.2515-22.393,5.5486-22.0955h7.432l-13.5748,51.127h-9.8095l-7.1341-24.5727-4.4587-15.556h-.1978l-4.3595,15.556-7.1341,24.5727h-9.6117l-13.6733-51.127h7.7283Z" style="fill:#fff;"/><path d="M915.5818,47.7585c0-16.2498,9.116-26.7524,22.9879-26.7524,13.6733,0,22.0959,10.5026,22.0959,24.9691v3.7653h-36.7605v2.3776c0,8.8189,5.6479,15.4574,15.1603,15.4574,6.4399,0,11.3943-3.171,14.0697-8.8182l5.6479,4.0624c-3.2696,6.9356-10.6023,11.6914-20.2133,11.6914-13.8719,0-22.9879-10.5023-22.9879-26.7524ZM923.905,43.1015v.6938h28.2387v-1.0902c0-9.0164-5.4493-15.0607-13.574-15.0607-8.6204,0-14.6646,6.5396-14.6646,15.457Z" style="fill:#fff;"/><path d="M973.7432,22.1948h7.9269v9.4128h.4949c1.7841-4.8551,6.4406-9.4128,14.7639-9.4128h3.071v7.9265h-4.6566c-8.5211,0-13.6733,3.6663-13.6733,8.5215v34.679h-7.9269V22.1948Z" style="fill:#fff;"/></g></g></svg>
