<?xml version="1.0" encoding="UTF-8"?><svg id="Layer_2" xmlns="http://www.w3.org/2000/svg" viewBox="0 0 985.9229 119.0322"><g id="Components"><g id="f6f37388-a78b-4396-9243-8c153c00e22e_5"><path d="M183.6143,29.6037C183.6143,11.9858,172.7544.0632,155.6616.0632h-43.8521v92.4636h20.1416v-33.9133h14.4409l16.1582,33.9133h22.3862l-18.144-36.301c11.2544-4.2356,16.8218-14.1731,16.8218-26.6221ZM162.8169,32.5166c0,5.9619-3.7104,9.1401-9.6724,9.1401h-21.1934v-24.1118h21.1934c5.9619,0,9.6724,3.1785,9.6724,9.1401v5.8315Z" style="fill:#fff; stroke-width:0px;"/><polygon points="484.9976 62.3249 484.5947 62.3249 475.7197 43.7793 450.4219 .0632 428.4243 .0632 428.4243 92.5278 447.3726 92.5278 447.3726 30.2661 447.7686 30.2661 456.6421 48.813 481.9482 92.5278 503.939 92.5278 503.939 .0632 484.9976 .0632 484.9976 62.3249" style="fill:#fff; stroke-width:0px;"/><polygon points="325.2339 .0747 305.0918 .0632 305.0918 .0747 305.0918 16.0835 324.2002 79.4653 324.2002 92.5268 344.3423 92.5268 344.3423 76.5005 325.2339 13.1196 325.2339 .0747" style="fill:#fff; stroke-width:0px;"/><polygon points="382.3999 .0747 362.2578 .0632 362.2578 .0747 362.2578 16.0835 381.3662 79.4653 381.3662 92.5268 401.5083 92.5268 401.5083 76.5005 382.3999 13.1196 382.3999 .0747" style="fill:#fff; stroke-width:0px;"/><polygon points="264.1743 .0632 230.5923 .0632 226.6641 13.1084 207.5557 76.489 207.5557 92.5156 227.6978 92.5156 227.6978 79.4541 246.1279 18.3232 248.6392 18.3232 267.0693 79.4541 267.0693 92.5156 287.2109 92.5156 287.2109 76.489 268.1025 13.1084 264.1743 .0632" style="fill:#fff; stroke-width:0px;"/><path d="M572.5854,36.8892l-9.2749-1.4575c-3.9741-.6167-6.7544-1.5232-8.3438-2.7158-1.5889-1.1909-2.3848-3.2886-2.3848-6.2925,0-5.5635,4.415-8.4727,13.2456-8.4727h28.3511V.0632h-28.3511c-10.4194.1775-18.5889,2.739-24.5044,7.6838-5.9189,4.9473-8.877,11.6572-8.877,19.8689,0,7.7732,2.2969,13.9553,6.8896,18.2815,4.5894,4.3281,11.6992,7.0654,21.3262,8.2119l9.1396,1.1924c3.9746.5298,6.7583,1.6567,8.3472,3.3794,1.5894,1.7222,2.3857,3.907,2.3857,6.5571,0,3.4448-1.2407,6.1821-3.7114,8.2119-2.4746,2.0334-6.0933,3.0483-10.8604,3.0483-9.0977,0-16.8262-3.5781-23.1855-10.7305l-13.1143,13.3792c8.9189,9.9807,20.5332,14.97,34.8418,14.97,7.5049,0,13.9746-1.2585,19.4067-3.7756,5.4321-2.5168,9.5596-6.0273,12.3857-10.5315,2.8262-4.5042,4.2373-9.7139,4.2373-15.6311,0-7.8601-2.2964-13.9978-6.8857-18.4148-4.5933-4.4153-11.6143-7.373-21.0635-8.875Z" style="fill:#fff; stroke-width:0px;"/><path d="M70.0278,44.2685v-.7983c6.3223-2.3113,11.2061-8.7852,11.2061-19.6848,0-7.1531-2.1401-12.8923-6.4238-17.2207C70.5264,2.2383,64.543.0732,56.8604.0732L0,.0632v16.0173h11.9497v76.4595h49.0171c3.4448,0,6.623-.6826,9.5381-2.0532,2.915-1.3687,5.4321-3.2456,7.5508-5.6309,2.1191-2.3838,3.7754-5.187,4.9668-8.4111,1.1943-3.2229,1.7881-6.6448,1.7881-10.2671,0-12.1934-7.3013-19.2817-14.7827-21.9092ZM32.0889,17.0288h20.0044c2.6519,0,4.7246.7522,6.2285,2.2524,1.5,1.5037,2.2505,3.5762,2.2505,6.2266v3.9746c0,2.6484-.7505,4.7246-2.2505,6.2266-1.5039,1.502-3.5767,2.2524-6.2285,2.2524h-20.0044v-20.9326ZM63.8853,67.2371c0,2.6501-.7749,4.7034-2.3179,6.1609-1.5464,1.4575-3.6436,2.1846-6.292,2.1846h-23.1865v-21.1953h23.1865c2.6484,0,4.7456.7288,6.292,2.1863,1.543,1.4575,2.3179,3.5105,2.3179,6.1594v4.5042Z" style="fill:#fff; stroke-width:0px;"/><path d="M667.5364,0h36.8499c16.5691,0,25.8477,10.2061,25.8477,26.5107s-9.2786,26.5107-25.8477,26.5107h-25.7153v39.501h-11.1345V0ZM704.3863,43.2119c8.7485,0,13.918-4.7715,13.918-13.2549v-6.8926c0-8.4834-5.1694-13.2559-13.918-13.2559h-25.7153v33.4033h25.7153Z" style="fill:#fff; stroke-width:0px;"/><path d="M745.4757,24.124h10.604v12.5928h.6631c2.3857-6.4951,8.6157-12.5928,19.7502-12.5928h4.1091v10.6045h-6.23c-11.3994,0-18.2925,4.9053-18.2925,11.3994v46.3945h-10.604V24.124Z" style="fill:#fff; stroke-width:0px;"/><path d="M788.4219,58.3232c0-21.7383,12.5923-35.7891,30.8848-35.7891s30.8848,14.0508,30.8848,35.7891-12.5923,35.7891-30.8848,35.7891-30.8848-14.0508-30.8848-35.7891ZM838.7921,63.2275v-9.8086c0-14.4482-8.0859-21.4736-19.4854-21.4736s-19.4854,7.0254-19.4854,21.4736v9.8086c0,14.4482,8.0859,21.4736,19.4854,21.4736s19.4854-7.0254,19.4854-21.4736Z" style="fill:#fff; stroke-width:0px;"/><path d="M858.6744,24.124h12.46l17.3645,25.4512h.3977l18.0273-25.4512h11.7971l-24.1248,33.1387,24.6548,35.2598h-12.46l-17.762-26.7764h-.3977l-19.2202,26.7764h-11.7974l25.3179-34.4648-24.2573-33.9336Z" style="fill:#fff; stroke-width:0px;"/><path d="M985.9229,24.124l-30.6199,84.3047c-3.0486,8.2178-5.8323,10.6035-15.9065,10.6035h-5.4346v-9.2783h10.7368l5.1694-14.5811-25.5825-71.0488h10.604l16.4365,46.5264,3.1814,11.1348h.6628l3.7114-11.1348,16.5693-46.5264h10.4717Z" style="fill:#fff; stroke-width:0px;"/></g></g></svg>