<?xml version="1.0" encoding="UTF-8"?><svg id="Layer_2" xmlns="http://www.w3.org/2000/svg" viewBox="0 0 191.405 27.0701"><g id="Components"><g id="_87bd7c8f-7f7b-4bbb-b8d3-68ca5bfd66e8_5"><path d="M24.8523,11.2702c0-2.3846-1.4699-3.9983-3.7834-3.9983h-5.9354v12.515h2.7262v-4.5902h1.9546l2.187,4.5902h3.03l-2.4558-4.9134c1.5233-.5733,2.2768-1.9183,2.2768-3.6033ZM22.0374,11.6644c0,.8069-.5022,1.2371-1.3092,1.2371h-2.8685v-3.2636h2.8685c.8069,0,1.3092.4302,1.3092,1.2371v.7893Z" style="fill:#fff; stroke-width:0px;"/><polygon points="65.6448 15.699 65.5903 15.699 64.389 13.1888 60.965 7.2718 57.9876 7.2718 57.9876 19.787 60.5522 19.787 60.5522 11.3598 60.6058 11.3598 61.8069 13.8702 65.2321 19.787 68.2085 19.787 68.2085 7.2718 65.6448 7.2718 65.6448 15.699" style="fill:#fff; stroke-width:0px;"/><polygon points="44.0207 7.2734 41.2944 7.2718 41.2944 7.2734 41.2944 9.4402 43.8808 18.019 43.8808 19.7869 46.607 19.7869 46.607 17.6177 44.0207 9.039 44.0207 7.2734" style="fill:#fff; stroke-width:0px;"/><polygon points="51.7581 7.2734 49.0319 7.2718 49.0319 7.2734 49.0319 9.4402 51.6182 18.019 51.6182 19.7869 54.3445 19.7869 54.3445 17.6177 51.7581 9.039 51.7581 7.2734" style="fill:#fff; stroke-width:0px;"/><polygon points="35.7562 7.2718 31.2109 7.2718 30.6792 9.0375 28.0928 17.6161 28.0928 19.7853 30.8191 19.7853 30.8191 18.0174 33.3136 9.7433 33.6535 9.7433 36.148 18.0174 36.148 19.7853 38.8742 19.7853 38.8742 17.6161 36.2879 9.0375 35.7562 7.2718" style="fill:#fff; stroke-width:0px;"/><path d="M77.4999,12.2563l-1.2554-.1973c-.5379-.0835-.9142-.2062-1.1293-.3676-.2151-.1612-.3228-.4451-.3228-.8517,0-.753.5976-1.1468,1.7928-1.1468h3.8373v-2.4211h-3.8373c-1.4103.024-2.516.3707-3.3167,1.04-.8011.6696-1.2015,1.5778-1.2015,2.6893,0,1.0521.3109,1.8889.9325,2.4744.6212.5858,1.5835.9563,2.8865,1.1115l1.2371.1614c.538.0717.9147.2242,1.1298.4574.2151.2331.3229.5288.3229.8875,0,.4663-.1679.8368-.5023,1.1115-.3349.2752-.8247.4126-1.47.4126-1.2314,0-2.2774-.4843-3.1382-1.4524l-1.775,1.8109c1.2072,1.3509,2.7792,2.0262,4.7159,2.0262,1.0158,0,1.8915-.1703,2.6267-.511.7352-.3407,1.2939-.8158,1.6764-1.4254s.5735-1.3148.5735-2.1157c0-1.0639-.3108-1.8946-.932-2.4925-.6217-.5976-1.572-.9979-2.851-1.2012Z" style="fill:#fff; stroke-width:0px;"/><path d="M9.4783,13.2551v-.1081c.8557-.3128,1.5167-1.1891,1.5167-2.6644,0-.9682-.2897-1.745-.8695-2.3308-.5798-.5856-1.3897-.8786-2.4295-.8786l-7.6961-.0014v2.168h1.6174v10.3489h6.6345c.4663,0,.8964-.0924,1.291-.2779.3946-.1852.7352-.4393,1.022-.7621.2868-.3226.511-.7021.6723-1.1385.1617-.4362.242-.8994.242-1.3897,0-1.6504-.9882-2.6098-2.0009-2.9654ZM4.3433,9.5681h2.7076c.3589,0,.6395.1018.843.3049.203.2035.3046.484.3046.8428v.538c0,.3585-.1016.6395-.3046.8428-.2036.2033-.4841.3049-.843.3049h-2.7076v-2.8332ZM8.6469,16.3639c0,.3587-.1049.6366-.3137.8339-.2093.1973-.4932.2957-.8516.2957h-3.1383v-2.8688h3.1383c.3585,0,.6423.0986.8516.2959.2088.1973.3137.4751.3137.8337v.6096Z" style="fill:#fff; stroke-width:0px;"/><path d="M177.7882,9.6223h-2.8711v3.2661h2.8711c.8076,0,1.3096-.4307,1.3096-1.2383v-.7896c0-.8076-.502-1.2383-1.3096-1.2383Z" style="fill:#fff; stroke-width:0px;"/><polygon points="116.2189 9.7302 114.712 14.4855 117.8165 14.4855 116.3087 9.7302 116.2189 9.7302" style="fill:#fff; stroke-width:0px;"/><path d="M185.9909,5.414V0h-100.029v5.414l5.4139,16.2421v5.414h100.0291v-5.414l-5.4141-16.2421ZM108.7892,19.779h-2.5654v-8.2183h-.0547l-.915,1.8301-1.3271,2.4224h-2.1895l-1.3105-2.4043-.9502-1.9741h-.0537v8.3442h-2.5664V7.2541h2.8887l3.0684,5.8677h.0361l3.0322-5.8677h2.9072v12.5249ZM118.9826,19.779v-1.6509l-.4307-1.3281h-4.5762l-.4297,1.3281v1.6509h-2.6025v-2.1353l3.7686-10.3896h3.2656l3.6963,10.3896.0186,2.1353h-2.71ZM134.0743,19.779h-2.9795l-3.4268-5.9214-1.2021-2.5127h-.0547v8.4341h-2.5654V7.2541h2.9785l3.4277,5.9214,1.2021,2.5122h.0537V7.2541h2.5664v12.5249ZM144.2667,19.779v-1.6509l-.4307-1.3281h-4.5752l-.4316,1.3281v1.6509h-2.6016v-2.1353l3.7686-10.3896h3.2656l3.6963,10.3896.0186,2.1353h-2.71ZM159.0177,14.6828c0,3.0146-1.8848,5.3115-5.2402,5.3115-3.8398,0-5.6699-2.7456-5.6699-6.4238,0-3.876,2.0098-6.5322,5.6699-6.5322,2.2432,0,3.8945.9692,4.8271,2.9072l-2.2246,1.2739c-.377-.9868-1.1484-1.7583-2.6025-1.7583-1.7041,0-2.7812.9512-2.7812,3.0503v2.0098c0,2.0815,1.0771,3.0508,2.7812,3.0508,1.3457,0,2.459-.6284,2.459-1.8662v-.6284h-2.333v-2.2788h5.1143v1.8843ZM169.8204,9.6765h-5.7959v2.5659h4.9707v2.4043h-4.9707v2.71h5.7959v2.4224h-8.5234V7.2541h8.5234v2.4224ZM179.0617,19.779l-2.1885-4.5937h-1.9561v4.5937h-2.7275V7.2541h5.9395c2.3145,0,3.7861,1.6147,3.7861,4.0015,0,1.6865-.7539,3.0327-2.2793,3.6069l2.459,4.9165h-3.0332Z" style="fill:#fff; stroke-width:0px;"/><polygon points="141.5031 9.7302 139.9962 14.4855 143.1007 14.4855 141.5929 9.7302 141.5031 9.7302" style="fill:#fff; stroke-width:0px;"/></g></g></svg>