<?xml version="1.0" encoding="UTF-8"?><svg id="Layer_2" xmlns="http://www.w3.org/2000/svg" viewBox="0 0 1128.3581 99.6844"><g id="Components"><g id="_18beab23-d76b-4dc6-9da6-a600f5e6b65d_5"><path d="m183.6143,35.171c0-17.6179-10.8599-29.5405-27.9526-29.5405h-43.8521v92.4636h20.1416v-33.9133h14.4409l16.1582,33.9133h22.3862l-18.144-36.301c11.2544-4.2356,16.8218-14.1731,16.8218-26.6221Zm-20.7974,2.9128c0,5.9619-3.7104,9.1401-9.6724,9.1401h-21.1934v-24.1118h21.1934c5.9619,0,9.6724,3.1785,9.6724,9.1401v5.8315Z" style="fill:#fff;"/><polygon points="484.9976 67.8922 484.5947 67.8922 475.7197 49.3465 450.4219 5.6305 428.4243 5.6305 428.4243 98.0951 447.3726 98.0951 447.3726 35.8333 447.7686 35.8333 456.6421 54.3802 481.9482 98.0951 503.939 98.0951 503.939 5.6305 484.9976 5.6305 484.9976 67.8922" style="fill:#fff;"/><polygon points="325.2339 5.6419 305.0918 5.6305 305.0918 5.6419 305.0918 21.6507 324.2002 85.0326 324.2002 98.0941 344.3423 98.0941 344.3423 82.0677 325.2339 18.6869 325.2339 5.6419" style="fill:#fff;"/><polygon points="382.3999 5.6419 362.2578 5.6305 362.2578 5.6419 362.2578 21.6507 381.3662 85.0326 381.3662 98.0941 401.5083 98.0941 401.5083 82.0677 382.3999 18.6869 382.3999 5.6419" style="fill:#fff;"/><polygon points="264.1743 5.6305 230.5923 5.6305 226.6641 18.6756 207.5557 82.0562 207.5557 98.0828 227.6978 98.0828 227.6978 85.0213 246.1279 23.8905 248.6392 23.8905 267.0693 85.0213 267.0693 98.0828 287.2109 98.0828 287.2109 82.0562 268.1025 18.6756 264.1743 5.6305" style="fill:#fff;"/><path d="m572.5854,42.4564l-9.2749-1.4575c-3.9741-.6167-6.7544-1.5232-8.3438-2.7158-1.5889-1.1909-2.3848-3.2886-2.3848-6.2925,0-5.5635,4.415-8.4727,13.2456-8.4727h28.3511V5.6305h-28.3511c-10.4194.1775-18.5889,2.739-24.5044,7.6838-5.9189,4.9473-8.877,11.6572-8.877,19.8689,0,7.7732,2.2969,13.9553,6.8896,18.2815,4.5894,4.3281,11.6992,7.0654,21.3262,8.2119l9.1396,1.1924c3.9746.5298,6.7583,1.6567,8.3472,3.3794,1.5894,1.7222,2.3857,3.907,2.3857,6.5571,0,3.4448-1.2407,6.1821-3.7114,8.2119-2.4746,2.0334-6.0933,3.0483-10.8604,3.0483-9.0977,0-16.8262-3.5781-23.1855-10.7305l-13.1143,13.3792c8.9189,9.9807,20.5332,14.97,34.8418,14.97,7.5049,0,13.9746-1.2585,19.4067-3.7756,5.4321-2.5168,9.5596-6.0273,12.3857-10.5315,2.8262-4.5042,4.2373-9.7139,4.2373-15.6311,0-7.8601-2.2964-13.9978-6.8857-18.4148-4.5933-4.4153-11.6143-7.373-21.0635-8.875Z" style="fill:#fff;"/><path d="m70.0278,49.8358v-.7983c6.3223-2.3113,11.2061-8.7852,11.2061-19.6848,0-7.1531-2.1401-12.8923-6.4238-17.2207-4.2837-4.3264-10.2671-6.4915-17.9497-6.4915l-56.8604-.01v16.0173h11.9497v76.4595h49.0171c3.4448,0,6.623-.6826,9.5381-2.0532,2.915-1.3687,5.4321-3.2456,7.5508-5.6309,2.1191-2.3838,3.7754-5.187,4.9668-8.4111,1.1943-3.2229,1.7881-6.6448,1.7881-10.2671,0-12.1934-7.3013-19.2817-14.7827-21.9092Zm-37.939-27.2397h20.0044c2.6519,0,4.7246.7522,6.2285,2.2524,1.5,1.5037,2.2505,3.5762,2.2505,6.2266v3.9746c0,2.6484-.7505,4.7246-2.2505,6.2266-1.5039,1.502-3.5767,2.2524-6.2285,2.2524h-20.0044v-20.9326Zm31.7964,50.2083c0,2.6501-.7749,4.7034-2.3179,6.1609-1.5464,1.4575-3.6436,2.1846-6.292,2.1846h-23.1865v-21.1953h23.1865c2.6484,0,4.7456.7288,6.292,2.1863,1.543,1.4575,2.3179,3.5105,2.3179,6.1594v4.5042Z" style="fill:#fff;"/><g><path d="m706.1862,98.0894h-11.1348V15.3765h-29.4258V5.5674h69.9873v9.8091h-29.4268v82.7129Z" style="fill:#fff;"/><path d="m736.1433,63.8906c0-21.7388,12.5918-35.7896,30.8848-35.7896s30.8848,14.0508,30.8848,35.7896-12.5928,35.7896-30.8848,35.7896-30.8848-14.0508-30.8848-35.7896Zm50.3701,4.9048v-9.8096c0-14.4482-8.0859-21.4731-19.4854-21.4731s-19.4854,7.0249-19.4854,21.4731v9.8096c0,14.4482,8.0859,21.4736,19.4854,21.4736s19.4854-7.0254,19.4854-21.4736Z" style="fill:#fff;"/><path d="m810.3708,63.8906c0-21.7388,12.5928-35.7896,30.8848-35.7896s30.8857,14.0508,30.8857,35.7896-12.5928,35.7896-30.8857,35.7896-30.8848-14.0508-30.8848-35.7896Zm50.3701,4.9048v-9.8096c0-14.4482-8.0859-21.4731-19.4854-21.4731s-19.4854,7.0249-19.4854,21.4731v9.8096c0,14.4482,8.0859,21.4736,19.4854,21.4736s19.4854-7.0254,19.4854-21.4736Z" style="fill:#fff;"/><path d="m889.6364,87.0874V0h10.6045v88.8105h10.0742v9.2788h-9.4121c-7.29,0-11.2666-4.6396-11.2666-11.002Z" style="fill:#fff;"/><path d="m936.2927,0v40.8267h.5303c3.5791-8.6162,10.6045-12.7256,20.0156-12.7256,17.0996,0,27.8359,13.918,27.8359,35.7896s-10.7363,35.7896-27.8359,35.7896c-9.4111,0-15.9062-4.2422-20.0156-12.7256h-.5303v11.1348h-10.6045V0h10.6045Zm36.9824,69.7231v-11.665c0-12.1943-7.4229-20.4131-19.3525-20.4131-9.6768,0-17.6299,5.5674-17.6299,13.123v25.4502c0,8.8809,7.9531,13.918,17.6299,13.918,11.9297,0,19.3525-8.2183,19.3525-20.4131Z" style="fill:#fff;"/><path d="m997.529,63.8906c0-21.7388,12.5928-35.7896,30.8857-35.7896s30.8848,14.0508,30.8848,35.7896-12.5928,35.7896-30.8848,35.7896-30.8857-14.0508-30.8857-35.7896Zm50.3701,4.9048v-9.8096c0-14.4482-8.085-21.4731-19.4844-21.4731s-19.4863,7.0249-19.4863,21.4731v9.8096c0,14.4482,8.0859,21.4736,19.4863,21.4736s19.4844-7.0254,19.4844-21.4736Z" style="fill:#fff;"/><path d="m1067.7819,29.6919h12.46l17.3643,25.4502h.3975l18.0273-25.4502h11.7979l-24.125,33.1387,24.6543,35.2588h-12.459l-17.7627-26.7754h-.3975l-19.2207,26.7754h-11.7969l25.3174-34.4639-24.2568-33.9336Z" style="fill:#fff;"/></g></g></g></svg>